<mxfile host="Electron" modified="2023-12-03T21:03:20.327Z" agent="Mozilla/5.0 (Windows NT 10.0; Win64; x64) AppleWebKit/537.36 (KHTML, like Gecko) draw.io/21.6.5 Chrome/114.0.5735.243 Electron/25.3.1 Safari/537.36" etag="Tr3h1fhKcGWdM-ootp8J" version="21.6.5" type="device">
  <diagram name="Page-1" id="Ozo45GHPGSd43qE5-Pqk">
    <mxGraphModel dx="1036" dy="623" grid="1" gridSize="10" guides="1" tooltips="1" connect="1" arrows="1" fold="1" page="0" pageScale="1" pageWidth="850" pageHeight="1100" math="0" shadow="0">
      <root>
        <mxCell id="0" />
        <mxCell id="1" parent="0" />
        <mxCell id="y_RNbKNA8iqJO-V6Iays-14" value="Users" style="shape=table;startSize=30;container=1;collapsible=1;childLayout=tableLayout;fixedRows=1;rowLines=0;fontStyle=1;align=center;resizeLast=1;html=1;whiteSpace=wrap;fillColor=#182E3E;strokeColor=#FFFFFF;labelBackgroundColor=none;fontColor=#FFFFFF;" parent="1" vertex="1">
          <mxGeometry x="90" y="80" width="180" height="240" as="geometry" />
        </mxCell>
        <mxCell id="y_RNbKNA8iqJO-V6Iays-15" value="" style="shape=tableRow;horizontal=0;startSize=0;swimlaneHead=0;swimlaneBody=0;fillColor=none;collapsible=0;dropTarget=0;points=[[0,0.5],[1,0.5]];portConstraint=eastwest;top=0;left=0;right=0;bottom=0;html=1;labelBackgroundColor=none;strokeColor=#FFFFFF;fontColor=#FFFFFF;" parent="y_RNbKNA8iqJO-V6Iays-14" vertex="1">
          <mxGeometry y="30" width="180" height="30" as="geometry" />
        </mxCell>
        <mxCell id="y_RNbKNA8iqJO-V6Iays-16" value="PK" style="shape=partialRectangle;connectable=0;fillColor=none;top=0;left=0;bottom=0;right=0;fontStyle=1;overflow=hidden;html=1;whiteSpace=wrap;labelBackgroundColor=none;strokeColor=#FFFFFF;fontColor=#FFFFFF;" parent="y_RNbKNA8iqJO-V6Iays-15" vertex="1">
          <mxGeometry width="60" height="30" as="geometry">
            <mxRectangle width="60" height="30" as="alternateBounds" />
          </mxGeometry>
        </mxCell>
        <mxCell id="y_RNbKNA8iqJO-V6Iays-17" value="ID" style="shape=partialRectangle;connectable=0;fillColor=none;top=0;left=0;bottom=0;right=0;align=left;spacingLeft=6;fontStyle=5;overflow=hidden;html=1;whiteSpace=wrap;labelBackgroundColor=none;strokeColor=#FFFFFF;fontColor=#FFFFFF;" parent="y_RNbKNA8iqJO-V6Iays-15" vertex="1">
          <mxGeometry x="60" width="120" height="30" as="geometry">
            <mxRectangle width="120" height="30" as="alternateBounds" />
          </mxGeometry>
        </mxCell>
        <mxCell id="y_RNbKNA8iqJO-V6Iays-30" style="shape=tableRow;horizontal=0;startSize=0;swimlaneHead=0;swimlaneBody=0;fillColor=none;collapsible=0;dropTarget=0;points=[[0,0.5],[1,0.5]];portConstraint=eastwest;top=0;left=0;right=0;bottom=0;html=1;labelBackgroundColor=none;strokeColor=#FFFFFF;fontColor=#FFFFFF;" parent="y_RNbKNA8iqJO-V6Iays-14" vertex="1">
          <mxGeometry y="60" width="180" height="30" as="geometry" />
        </mxCell>
        <mxCell id="y_RNbKNA8iqJO-V6Iays-31" value="&lt;b&gt;FK&lt;/b&gt;" style="shape=partialRectangle;connectable=0;fillColor=none;top=0;left=0;bottom=0;right=0;editable=1;overflow=hidden;html=1;whiteSpace=wrap;labelBackgroundColor=none;strokeColor=#FFFFFF;fontColor=#FFFFFF;" parent="y_RNbKNA8iqJO-V6Iays-30" vertex="1">
          <mxGeometry width="60" height="30" as="geometry">
            <mxRectangle width="60" height="30" as="alternateBounds" />
          </mxGeometry>
        </mxCell>
        <mxCell id="y_RNbKNA8iqJO-V6Iays-32" value="&lt;b&gt;Position&lt;/b&gt;" style="shape=partialRectangle;connectable=0;fillColor=none;top=0;left=0;bottom=0;right=0;align=left;spacingLeft=6;overflow=hidden;html=1;whiteSpace=wrap;labelBackgroundColor=none;strokeColor=#FFFFFF;fontColor=#FFFFFF;" parent="y_RNbKNA8iqJO-V6Iays-30" vertex="1">
          <mxGeometry x="60" width="120" height="30" as="geometry">
            <mxRectangle width="120" height="30" as="alternateBounds" />
          </mxGeometry>
        </mxCell>
        <mxCell id="y_RNbKNA8iqJO-V6Iays-21" value="" style="shape=tableRow;horizontal=0;startSize=0;swimlaneHead=0;swimlaneBody=0;fillColor=none;collapsible=0;dropTarget=0;points=[[0,0.5],[1,0.5]];portConstraint=eastwest;top=0;left=0;right=0;bottom=0;html=1;labelBackgroundColor=none;strokeColor=#FFFFFF;fontColor=#FFFFFF;" parent="y_RNbKNA8iqJO-V6Iays-14" vertex="1">
          <mxGeometry y="90" width="180" height="30" as="geometry" />
        </mxCell>
        <mxCell id="y_RNbKNA8iqJO-V6Iays-22" value="" style="shape=partialRectangle;connectable=0;fillColor=none;top=0;left=0;bottom=0;right=0;editable=1;overflow=hidden;html=1;whiteSpace=wrap;labelBackgroundColor=none;strokeColor=#FFFFFF;fontColor=#FFFFFF;" parent="y_RNbKNA8iqJO-V6Iays-21" vertex="1">
          <mxGeometry width="60" height="30" as="geometry">
            <mxRectangle width="60" height="30" as="alternateBounds" />
          </mxGeometry>
        </mxCell>
        <mxCell id="y_RNbKNA8iqJO-V6Iays-23" value="Name" style="shape=partialRectangle;connectable=0;fillColor=none;top=0;left=0;bottom=0;right=0;align=left;spacingLeft=6;overflow=hidden;html=1;whiteSpace=wrap;labelBackgroundColor=none;strokeColor=#FFFFFF;fontColor=#FFFFFF;" parent="y_RNbKNA8iqJO-V6Iays-21" vertex="1">
          <mxGeometry x="60" width="120" height="30" as="geometry">
            <mxRectangle width="120" height="30" as="alternateBounds" />
          </mxGeometry>
        </mxCell>
        <mxCell id="y_RNbKNA8iqJO-V6Iays-24" value="" style="shape=tableRow;horizontal=0;startSize=0;swimlaneHead=0;swimlaneBody=0;fillColor=none;collapsible=0;dropTarget=0;points=[[0,0.5],[1,0.5]];portConstraint=eastwest;top=0;left=0;right=0;bottom=0;html=1;labelBackgroundColor=none;strokeColor=#FFFFFF;fontColor=#FFFFFF;" parent="y_RNbKNA8iqJO-V6Iays-14" vertex="1">
          <mxGeometry y="120" width="180" height="30" as="geometry" />
        </mxCell>
        <mxCell id="y_RNbKNA8iqJO-V6Iays-25" value="" style="shape=partialRectangle;connectable=0;fillColor=none;top=0;left=0;bottom=0;right=0;editable=1;overflow=hidden;html=1;whiteSpace=wrap;labelBackgroundColor=none;strokeColor=#FFFFFF;fontColor=#FFFFFF;" parent="y_RNbKNA8iqJO-V6Iays-24" vertex="1">
          <mxGeometry width="60" height="30" as="geometry">
            <mxRectangle width="60" height="30" as="alternateBounds" />
          </mxGeometry>
        </mxCell>
        <mxCell id="y_RNbKNA8iqJO-V6Iays-26" value="Birth_day" style="shape=partialRectangle;connectable=0;fillColor=none;top=0;left=0;bottom=0;right=0;align=left;spacingLeft=6;overflow=hidden;html=1;whiteSpace=wrap;labelBackgroundColor=none;strokeColor=#FFFFFF;fontColor=#FFFFFF;" parent="y_RNbKNA8iqJO-V6Iays-24" vertex="1">
          <mxGeometry x="60" width="120" height="30" as="geometry">
            <mxRectangle width="120" height="30" as="alternateBounds" />
          </mxGeometry>
        </mxCell>
        <mxCell id="y_RNbKNA8iqJO-V6Iays-27" style="shape=tableRow;horizontal=0;startSize=0;swimlaneHead=0;swimlaneBody=0;fillColor=none;collapsible=0;dropTarget=0;points=[[0,0.5],[1,0.5]];portConstraint=eastwest;top=0;left=0;right=0;bottom=0;html=1;labelBackgroundColor=none;strokeColor=#FFFFFF;fontColor=#FFFFFF;" parent="y_RNbKNA8iqJO-V6Iays-14" vertex="1">
          <mxGeometry y="150" width="180" height="30" as="geometry" />
        </mxCell>
        <mxCell id="y_RNbKNA8iqJO-V6Iays-28" style="shape=partialRectangle;connectable=0;fillColor=none;top=0;left=0;bottom=0;right=0;editable=1;overflow=hidden;html=1;whiteSpace=wrap;labelBackgroundColor=none;strokeColor=#FFFFFF;fontColor=#FFFFFF;" parent="y_RNbKNA8iqJO-V6Iays-27" vertex="1">
          <mxGeometry width="60" height="30" as="geometry">
            <mxRectangle width="60" height="30" as="alternateBounds" />
          </mxGeometry>
        </mxCell>
        <mxCell id="y_RNbKNA8iqJO-V6Iays-29" value="Sex" style="shape=partialRectangle;connectable=0;fillColor=none;top=0;left=0;bottom=0;right=0;align=left;spacingLeft=6;overflow=hidden;html=1;whiteSpace=wrap;labelBackgroundColor=none;strokeColor=#FFFFFF;fontColor=#FFFFFF;" parent="y_RNbKNA8iqJO-V6Iays-27" vertex="1">
          <mxGeometry x="60" width="120" height="30" as="geometry">
            <mxRectangle width="120" height="30" as="alternateBounds" />
          </mxGeometry>
        </mxCell>
        <mxCell id="y_RNbKNA8iqJO-V6Iays-33" style="shape=tableRow;horizontal=0;startSize=0;swimlaneHead=0;swimlaneBody=0;fillColor=none;collapsible=0;dropTarget=0;points=[[0,0.5],[1,0.5]];portConstraint=eastwest;top=0;left=0;right=0;bottom=0;html=1;labelBackgroundColor=none;strokeColor=#FFFFFF;fontColor=#FFFFFF;" parent="y_RNbKNA8iqJO-V6Iays-14" vertex="1">
          <mxGeometry y="180" width="180" height="30" as="geometry" />
        </mxCell>
        <mxCell id="y_RNbKNA8iqJO-V6Iays-34" style="shape=partialRectangle;connectable=0;fillColor=none;top=0;left=0;bottom=0;right=0;editable=1;overflow=hidden;html=1;whiteSpace=wrap;labelBackgroundColor=none;strokeColor=#FFFFFF;fontColor=#FFFFFF;" parent="y_RNbKNA8iqJO-V6Iays-33" vertex="1">
          <mxGeometry width="60" height="30" as="geometry">
            <mxRectangle width="60" height="30" as="alternateBounds" />
          </mxGeometry>
        </mxCell>
        <mxCell id="y_RNbKNA8iqJO-V6Iays-35" value="Email" style="shape=partialRectangle;connectable=0;fillColor=none;top=0;left=0;bottom=0;right=0;align=left;spacingLeft=6;overflow=hidden;html=1;whiteSpace=wrap;labelBackgroundColor=none;strokeColor=#FFFFFF;fontColor=#FFFFFF;" parent="y_RNbKNA8iqJO-V6Iays-33" vertex="1">
          <mxGeometry x="60" width="120" height="30" as="geometry">
            <mxRectangle width="120" height="30" as="alternateBounds" />
          </mxGeometry>
        </mxCell>
        <mxCell id="y_RNbKNA8iqJO-V6Iays-36" style="shape=tableRow;horizontal=0;startSize=0;swimlaneHead=0;swimlaneBody=0;fillColor=none;collapsible=0;dropTarget=0;points=[[0,0.5],[1,0.5]];portConstraint=eastwest;top=0;left=0;right=0;bottom=0;html=1;labelBackgroundColor=none;strokeColor=#FFFFFF;fontColor=#FFFFFF;" parent="y_RNbKNA8iqJO-V6Iays-14" vertex="1">
          <mxGeometry y="210" width="180" height="30" as="geometry" />
        </mxCell>
        <mxCell id="y_RNbKNA8iqJO-V6Iays-37" style="shape=partialRectangle;connectable=0;fillColor=none;top=0;left=0;bottom=0;right=0;editable=1;overflow=hidden;html=1;whiteSpace=wrap;labelBackgroundColor=none;strokeColor=#FFFFFF;fontColor=#FFFFFF;" parent="y_RNbKNA8iqJO-V6Iays-36" vertex="1">
          <mxGeometry width="60" height="30" as="geometry">
            <mxRectangle width="60" height="30" as="alternateBounds" />
          </mxGeometry>
        </mxCell>
        <mxCell id="y_RNbKNA8iqJO-V6Iays-38" value="Password" style="shape=partialRectangle;connectable=0;fillColor=none;top=0;left=0;bottom=0;right=0;align=left;spacingLeft=6;overflow=hidden;html=1;whiteSpace=wrap;labelBackgroundColor=none;strokeColor=#FFFFFF;fontColor=#FFFFFF;" parent="y_RNbKNA8iqJO-V6Iays-36" vertex="1">
          <mxGeometry x="60" width="120" height="30" as="geometry">
            <mxRectangle width="120" height="30" as="alternateBounds" />
          </mxGeometry>
        </mxCell>
        <mxCell id="y_RNbKNA8iqJO-V6Iays-63" value="Positions" style="shape=table;startSize=30;container=1;collapsible=1;childLayout=tableLayout;fixedRows=1;rowLines=0;fontStyle=1;align=center;resizeLast=1;html=1;whiteSpace=wrap;fillColor=#d0cee2;strokeColor=#56517e;labelBackgroundColor=none;" parent="1" vertex="1">
          <mxGeometry x="370" width="180" height="90" as="geometry" />
        </mxCell>
        <mxCell id="y_RNbKNA8iqJO-V6Iays-64" value="" style="shape=tableRow;horizontal=0;startSize=0;swimlaneHead=0;swimlaneBody=0;fillColor=none;collapsible=0;dropTarget=0;points=[[0,0.5],[1,0.5]];portConstraint=eastwest;top=0;left=0;right=0;bottom=0;html=1;labelBackgroundColor=none;strokeColor=#FFFFFF;fontColor=#FFFFFF;" parent="y_RNbKNA8iqJO-V6Iays-63" vertex="1">
          <mxGeometry y="30" width="180" height="30" as="geometry" />
        </mxCell>
        <mxCell id="y_RNbKNA8iqJO-V6Iays-65" value="PK" style="shape=partialRectangle;connectable=0;fillColor=none;top=0;left=0;bottom=0;right=0;fontStyle=1;overflow=hidden;html=1;whiteSpace=wrap;labelBackgroundColor=none;strokeColor=#FFFFFF;fontColor=#FFFFFF;" parent="y_RNbKNA8iqJO-V6Iays-64" vertex="1">
          <mxGeometry width="60" height="30" as="geometry">
            <mxRectangle width="60" height="30" as="alternateBounds" />
          </mxGeometry>
        </mxCell>
        <mxCell id="y_RNbKNA8iqJO-V6Iays-66" value="ID" style="shape=partialRectangle;connectable=0;fillColor=none;top=0;left=0;bottom=0;right=0;align=left;spacingLeft=6;fontStyle=5;overflow=hidden;html=1;whiteSpace=wrap;labelBackgroundColor=none;strokeColor=#FFFFFF;fontColor=#FFFFFF;" parent="y_RNbKNA8iqJO-V6Iays-64" vertex="1">
          <mxGeometry x="60" width="120" height="30" as="geometry">
            <mxRectangle width="120" height="30" as="alternateBounds" />
          </mxGeometry>
        </mxCell>
        <mxCell id="y_RNbKNA8iqJO-V6Iays-70" value="" style="shape=tableRow;horizontal=0;startSize=0;swimlaneHead=0;swimlaneBody=0;fillColor=none;collapsible=0;dropTarget=0;points=[[0,0.5],[1,0.5]];portConstraint=eastwest;top=0;left=0;right=0;bottom=0;html=1;labelBackgroundColor=none;strokeColor=#FFFFFF;fontColor=#FFFFFF;" parent="y_RNbKNA8iqJO-V6Iays-63" vertex="1">
          <mxGeometry y="60" width="180" height="30" as="geometry" />
        </mxCell>
        <mxCell id="y_RNbKNA8iqJO-V6Iays-71" value="" style="shape=partialRectangle;connectable=0;fillColor=none;top=0;left=0;bottom=0;right=0;editable=1;overflow=hidden;html=1;whiteSpace=wrap;labelBackgroundColor=none;strokeColor=#FFFFFF;fontColor=#FFFFFF;" parent="y_RNbKNA8iqJO-V6Iays-70" vertex="1">
          <mxGeometry width="60" height="30" as="geometry">
            <mxRectangle width="60" height="30" as="alternateBounds" />
          </mxGeometry>
        </mxCell>
        <mxCell id="y_RNbKNA8iqJO-V6Iays-72" value="Name" style="shape=partialRectangle;connectable=0;fillColor=none;top=0;left=0;bottom=0;right=0;align=left;spacingLeft=6;overflow=hidden;html=1;whiteSpace=wrap;labelBackgroundColor=none;strokeColor=#FFFFFF;fontColor=#FFFFFF;" parent="y_RNbKNA8iqJO-V6Iays-70" vertex="1">
          <mxGeometry x="60" width="120" height="30" as="geometry">
            <mxRectangle width="120" height="30" as="alternateBounds" />
          </mxGeometry>
        </mxCell>
        <mxCell id="y_RNbKNA8iqJO-V6Iays-85" value="Permissions" style="shape=table;startSize=30;container=1;collapsible=1;childLayout=tableLayout;fixedRows=1;rowLines=0;fontStyle=1;align=center;resizeLast=1;html=1;whiteSpace=wrap;fillColor=#182E3E;fontColor=#FFFFFF;strokeColor=#FFFFFF;labelBackgroundColor=none;" parent="1" vertex="1">
          <mxGeometry x="600" y="80" width="180" height="120" as="geometry" />
        </mxCell>
        <mxCell id="y_RNbKNA8iqJO-V6Iays-86" value="" style="shape=tableRow;horizontal=0;startSize=0;swimlaneHead=0;swimlaneBody=0;fillColor=none;collapsible=0;dropTarget=0;points=[[0,0.5],[1,0.5]];portConstraint=eastwest;top=0;left=0;right=0;bottom=0;html=1;labelBackgroundColor=none;strokeColor=#FFFFFF;fontColor=#FFFFFF;" parent="y_RNbKNA8iqJO-V6Iays-85" vertex="1">
          <mxGeometry y="30" width="180" height="30" as="geometry" />
        </mxCell>
        <mxCell id="y_RNbKNA8iqJO-V6Iays-87" value="PK" style="shape=partialRectangle;connectable=0;fillColor=none;top=0;left=0;bottom=0;right=0;fontStyle=1;overflow=hidden;html=1;whiteSpace=wrap;labelBackgroundColor=none;strokeColor=#FFFFFF;fontColor=#FFFFFF;" parent="y_RNbKNA8iqJO-V6Iays-86" vertex="1">
          <mxGeometry width="60" height="30" as="geometry">
            <mxRectangle width="60" height="30" as="alternateBounds" />
          </mxGeometry>
        </mxCell>
        <mxCell id="y_RNbKNA8iqJO-V6Iays-88" value="ID" style="shape=partialRectangle;connectable=0;fillColor=none;top=0;left=0;bottom=0;right=0;align=left;spacingLeft=6;fontStyle=5;overflow=hidden;html=1;whiteSpace=wrap;labelBackgroundColor=none;strokeColor=#FFFFFF;fontColor=#FFFFFF;" parent="y_RNbKNA8iqJO-V6Iays-86" vertex="1">
          <mxGeometry x="60" width="120" height="30" as="geometry">
            <mxRectangle width="120" height="30" as="alternateBounds" />
          </mxGeometry>
        </mxCell>
        <mxCell id="y_RNbKNA8iqJO-V6Iays-89" value="" style="shape=tableRow;horizontal=0;startSize=0;swimlaneHead=0;swimlaneBody=0;fillColor=none;collapsible=0;dropTarget=0;points=[[0,0.5],[1,0.5]];portConstraint=eastwest;top=0;left=0;right=0;bottom=0;html=1;labelBackgroundColor=none;strokeColor=#FFFFFF;fontColor=#FFFFFF;" parent="y_RNbKNA8iqJO-V6Iays-85" vertex="1">
          <mxGeometry y="60" width="180" height="30" as="geometry" />
        </mxCell>
        <mxCell id="y_RNbKNA8iqJO-V6Iays-90" value="" style="shape=partialRectangle;connectable=0;fillColor=none;top=0;left=0;bottom=0;right=0;editable=1;overflow=hidden;html=1;whiteSpace=wrap;labelBackgroundColor=none;strokeColor=#FFFFFF;fontColor=#FFFFFF;" parent="y_RNbKNA8iqJO-V6Iays-89" vertex="1">
          <mxGeometry width="60" height="30" as="geometry">
            <mxRectangle width="60" height="30" as="alternateBounds" />
          </mxGeometry>
        </mxCell>
        <mxCell id="y_RNbKNA8iqJO-V6Iays-91" value="Name" style="shape=partialRectangle;connectable=0;fillColor=none;top=0;left=0;bottom=0;right=0;align=left;spacingLeft=6;overflow=hidden;html=1;whiteSpace=wrap;labelBackgroundColor=none;strokeColor=#FFFFFF;fontColor=#FFFFFF;" parent="y_RNbKNA8iqJO-V6Iays-89" vertex="1">
          <mxGeometry x="60" width="120" height="30" as="geometry">
            <mxRectangle width="120" height="30" as="alternateBounds" />
          </mxGeometry>
        </mxCell>
        <mxCell id="y_RNbKNA8iqJO-V6Iays-92" style="shape=tableRow;horizontal=0;startSize=0;swimlaneHead=0;swimlaneBody=0;fillColor=none;collapsible=0;dropTarget=0;points=[[0,0.5],[1,0.5]];portConstraint=eastwest;top=0;left=0;right=0;bottom=0;html=1;labelBackgroundColor=none;strokeColor=#FFFFFF;fontColor=#FFFFFF;" parent="y_RNbKNA8iqJO-V6Iays-85" vertex="1">
          <mxGeometry y="90" width="180" height="30" as="geometry" />
        </mxCell>
        <mxCell id="y_RNbKNA8iqJO-V6Iays-93" style="shape=partialRectangle;connectable=0;fillColor=none;top=0;left=0;bottom=0;right=0;editable=1;overflow=hidden;html=1;whiteSpace=wrap;labelBackgroundColor=none;strokeColor=#FFFFFF;fontColor=#FFFFFF;" parent="y_RNbKNA8iqJO-V6Iays-92" vertex="1">
          <mxGeometry width="60" height="30" as="geometry">
            <mxRectangle width="60" height="30" as="alternateBounds" />
          </mxGeometry>
        </mxCell>
        <mxCell id="y_RNbKNA8iqJO-V6Iays-94" value="Details" style="shape=partialRectangle;connectable=0;fillColor=none;top=0;left=0;bottom=0;right=0;align=left;spacingLeft=6;overflow=hidden;html=1;whiteSpace=wrap;labelBackgroundColor=none;strokeColor=#FFFFFF;fontColor=#FFFFFF;" parent="y_RNbKNA8iqJO-V6Iays-92" vertex="1">
          <mxGeometry x="60" width="120" height="30" as="geometry">
            <mxRectangle width="120" height="30" as="alternateBounds" />
          </mxGeometry>
        </mxCell>
        <mxCell id="y_RNbKNA8iqJO-V6Iays-95" value="user_persissons" style="shape=table;startSize=30;container=1;collapsible=1;childLayout=tableLayout;fixedRows=1;rowLines=0;fontStyle=1;align=center;resizeLast=1;html=1;whiteSpace=wrap;labelBackgroundColor=none;fillColor=#182E3E;strokeColor=#FFFFFF;fontColor=#FFFFFF;" parent="1" vertex="1">
          <mxGeometry x="450" y="270" width="180" height="120" as="geometry" />
        </mxCell>
        <mxCell id="y_RNbKNA8iqJO-V6Iays-96" value="" style="shape=tableRow;horizontal=0;startSize=0;swimlaneHead=0;swimlaneBody=0;fillColor=none;collapsible=0;dropTarget=0;points=[[0,0.5],[1,0.5]];portConstraint=eastwest;top=0;left=0;right=0;bottom=0;html=1;labelBackgroundColor=none;strokeColor=#FFFFFF;fontColor=#FFFFFF;" parent="y_RNbKNA8iqJO-V6Iays-95" vertex="1">
          <mxGeometry y="30" width="180" height="30" as="geometry" />
        </mxCell>
        <mxCell id="y_RNbKNA8iqJO-V6Iays-97" value="PK" style="shape=partialRectangle;connectable=0;fillColor=none;top=0;left=0;bottom=0;right=0;fontStyle=1;overflow=hidden;html=1;whiteSpace=wrap;labelBackgroundColor=none;strokeColor=#FFFFFF;fontColor=#FFFFFF;" parent="y_RNbKNA8iqJO-V6Iays-96" vertex="1">
          <mxGeometry width="60" height="30" as="geometry">
            <mxRectangle width="60" height="30" as="alternateBounds" />
          </mxGeometry>
        </mxCell>
        <mxCell id="y_RNbKNA8iqJO-V6Iays-98" value="ID" style="shape=partialRectangle;connectable=0;fillColor=none;top=0;left=0;bottom=0;right=0;align=left;spacingLeft=6;fontStyle=5;overflow=hidden;html=1;whiteSpace=wrap;labelBackgroundColor=none;strokeColor=#FFFFFF;fontColor=#FFFFFF;" parent="y_RNbKNA8iqJO-V6Iays-96" vertex="1">
          <mxGeometry x="60" width="120" height="30" as="geometry">
            <mxRectangle width="120" height="30" as="alternateBounds" />
          </mxGeometry>
        </mxCell>
        <mxCell id="y_RNbKNA8iqJO-V6Iays-99" value="" style="shape=tableRow;horizontal=0;startSize=0;swimlaneHead=0;swimlaneBody=0;fillColor=none;collapsible=0;dropTarget=0;points=[[0,0.5],[1,0.5]];portConstraint=eastwest;top=0;left=0;right=0;bottom=0;html=1;labelBackgroundColor=none;strokeColor=#FFFFFF;fontColor=#FFFFFF;" parent="y_RNbKNA8iqJO-V6Iays-95" vertex="1">
          <mxGeometry y="60" width="180" height="30" as="geometry" />
        </mxCell>
        <mxCell id="y_RNbKNA8iqJO-V6Iays-100" value="" style="shape=partialRectangle;connectable=0;fillColor=none;top=0;left=0;bottom=0;right=0;editable=1;overflow=hidden;html=1;whiteSpace=wrap;labelBackgroundColor=none;strokeColor=#FFFFFF;fontColor=#FFFFFF;" parent="y_RNbKNA8iqJO-V6Iays-99" vertex="1">
          <mxGeometry width="60" height="30" as="geometry">
            <mxRectangle width="60" height="30" as="alternateBounds" />
          </mxGeometry>
        </mxCell>
        <mxCell id="y_RNbKNA8iqJO-V6Iays-101" value="Position#" style="shape=partialRectangle;connectable=0;fillColor=none;top=0;left=0;bottom=0;right=0;align=left;spacingLeft=6;overflow=hidden;html=1;whiteSpace=wrap;labelBackgroundColor=none;strokeColor=#FFFFFF;fontColor=#FFFFFF;" parent="y_RNbKNA8iqJO-V6Iays-99" vertex="1">
          <mxGeometry x="60" width="120" height="30" as="geometry">
            <mxRectangle width="120" height="30" as="alternateBounds" />
          </mxGeometry>
        </mxCell>
        <mxCell id="y_RNbKNA8iqJO-V6Iays-102" style="shape=tableRow;horizontal=0;startSize=0;swimlaneHead=0;swimlaneBody=0;fillColor=none;collapsible=0;dropTarget=0;points=[[0,0.5],[1,0.5]];portConstraint=eastwest;top=0;left=0;right=0;bottom=0;html=1;labelBackgroundColor=none;strokeColor=#FFFFFF;fontColor=#FFFFFF;" parent="y_RNbKNA8iqJO-V6Iays-95" vertex="1">
          <mxGeometry y="90" width="180" height="30" as="geometry" />
        </mxCell>
        <mxCell id="y_RNbKNA8iqJO-V6Iays-103" style="shape=partialRectangle;connectable=0;fillColor=none;top=0;left=0;bottom=0;right=0;editable=1;overflow=hidden;html=1;whiteSpace=wrap;labelBackgroundColor=none;strokeColor=#FFFFFF;fontColor=#FFFFFF;" parent="y_RNbKNA8iqJO-V6Iays-102" vertex="1">
          <mxGeometry width="60" height="30" as="geometry">
            <mxRectangle width="60" height="30" as="alternateBounds" />
          </mxGeometry>
        </mxCell>
        <mxCell id="y_RNbKNA8iqJO-V6Iays-104" value="Permission#" style="shape=partialRectangle;connectable=0;fillColor=none;top=0;left=0;bottom=0;right=0;align=left;spacingLeft=6;overflow=hidden;html=1;whiteSpace=wrap;labelBackgroundColor=none;strokeColor=#FFFFFF;fontColor=#FFFFFF;" parent="y_RNbKNA8iqJO-V6Iays-102" vertex="1">
          <mxGeometry x="60" width="120" height="30" as="geometry">
            <mxRectangle width="120" height="30" as="alternateBounds" />
          </mxGeometry>
        </mxCell>
        <mxCell id="y_RNbKNA8iqJO-V6Iays-107" style="edgeStyle=orthogonalEdgeStyle;rounded=0;orthogonalLoop=1;jettySize=auto;html=1;exitX=1;exitY=0.5;exitDx=0;exitDy=0;entryX=0;entryY=0.5;entryDx=0;entryDy=0;labelBackgroundColor=none;strokeColor=#23445D;fontColor=default;" parent="1" source="y_RNbKNA8iqJO-V6Iays-102" target="y_RNbKNA8iqJO-V6Iays-86" edge="1">
          <mxGeometry relative="1" as="geometry">
            <Array as="points">
              <mxPoint x="650" y="375" />
              <mxPoint x="650" y="240" />
              <mxPoint x="580" y="240" />
              <mxPoint x="580" y="125" />
            </Array>
          </mxGeometry>
        </mxCell>
        <mxCell id="y_RNbKNA8iqJO-V6Iays-108" style="edgeStyle=orthogonalEdgeStyle;rounded=0;orthogonalLoop=1;jettySize=auto;html=1;exitX=1;exitY=0.5;exitDx=0;exitDy=0;entryX=-0.011;entryY=0.213;entryDx=0;entryDy=0;labelBackgroundColor=none;strokeColor=#23445D;fontColor=default;entryPerimeter=0;" parent="1" source="y_RNbKNA8iqJO-V6Iays-30" target="y_RNbKNA8iqJO-V6Iays-99" edge="1">
          <mxGeometry relative="1" as="geometry" />
        </mxCell>
        <mxCell id="y_RNbKNA8iqJO-V6Iays-109" value="Articles || News" style="shape=table;startSize=30;container=1;collapsible=1;childLayout=tableLayout;fixedRows=1;rowLines=0;fontStyle=1;align=center;resizeLast=1;html=1;whiteSpace=wrap;fillColor=#182E3E;strokeColor=#FFFFFF;labelBackgroundColor=none;fontColor=#FFFFFF;" parent="1" vertex="1">
          <mxGeometry x="600" y="590" width="180" height="210" as="geometry">
            <mxRectangle x="550" y="700" width="130" height="30" as="alternateBounds" />
          </mxGeometry>
        </mxCell>
        <mxCell id="y_RNbKNA8iqJO-V6Iays-110" value="" style="shape=tableRow;horizontal=0;startSize=0;swimlaneHead=0;swimlaneBody=0;fillColor=none;collapsible=0;dropTarget=0;points=[[0,0.5],[1,0.5]];portConstraint=eastwest;top=0;left=0;right=0;bottom=0;html=1;labelBackgroundColor=none;strokeColor=#FFFFFF;fontColor=#FFFFFF;" parent="y_RNbKNA8iqJO-V6Iays-109" vertex="1">
          <mxGeometry y="30" width="180" height="30" as="geometry" />
        </mxCell>
        <mxCell id="y_RNbKNA8iqJO-V6Iays-111" value="PK" style="shape=partialRectangle;connectable=0;fillColor=none;top=0;left=0;bottom=0;right=0;fontStyle=1;overflow=hidden;html=1;whiteSpace=wrap;labelBackgroundColor=none;strokeColor=#FFFFFF;fontColor=#FFFFFF;" parent="y_RNbKNA8iqJO-V6Iays-110" vertex="1">
          <mxGeometry width="60" height="30" as="geometry">
            <mxRectangle width="60" height="30" as="alternateBounds" />
          </mxGeometry>
        </mxCell>
        <mxCell id="y_RNbKNA8iqJO-V6Iays-112" value="ID" style="shape=partialRectangle;connectable=0;fillColor=none;top=0;left=0;bottom=0;right=0;align=left;spacingLeft=6;fontStyle=5;overflow=hidden;html=1;whiteSpace=wrap;labelBackgroundColor=none;strokeColor=#FFFFFF;fontColor=#FFFFFF;" parent="y_RNbKNA8iqJO-V6Iays-110" vertex="1">
          <mxGeometry x="60" width="120" height="30" as="geometry">
            <mxRectangle width="120" height="30" as="alternateBounds" />
          </mxGeometry>
        </mxCell>
        <mxCell id="y_RNbKNA8iqJO-V6Iays-263" style="shape=tableRow;horizontal=0;startSize=0;swimlaneHead=0;swimlaneBody=0;fillColor=none;collapsible=0;dropTarget=0;points=[[0,0.5],[1,0.5]];portConstraint=eastwest;top=0;left=0;right=0;bottom=0;html=1;labelBackgroundColor=none;strokeColor=#FFFFFF;fontColor=#FFFFFF;" parent="y_RNbKNA8iqJO-V6Iays-109" vertex="1">
          <mxGeometry y="60" width="180" height="30" as="geometry" />
        </mxCell>
        <mxCell id="y_RNbKNA8iqJO-V6Iays-264" value="&lt;b&gt;FK&lt;/b&gt;" style="shape=partialRectangle;connectable=0;fillColor=none;top=0;left=0;bottom=0;right=0;editable=1;overflow=hidden;html=1;whiteSpace=wrap;labelBackgroundColor=none;strokeColor=#FFFFFF;fontColor=#FFFFFF;" parent="y_RNbKNA8iqJO-V6Iays-263" vertex="1">
          <mxGeometry width="60" height="30" as="geometry">
            <mxRectangle width="60" height="30" as="alternateBounds" />
          </mxGeometry>
        </mxCell>
        <mxCell id="y_RNbKNA8iqJO-V6Iays-265" value="&lt;b&gt;Category#&lt;/b&gt;" style="shape=partialRectangle;connectable=0;fillColor=none;top=0;left=0;bottom=0;right=0;align=left;spacingLeft=6;overflow=hidden;html=1;whiteSpace=wrap;labelBackgroundColor=none;strokeColor=#FFFFFF;fontColor=#FFFFFF;" parent="y_RNbKNA8iqJO-V6Iays-263" vertex="1">
          <mxGeometry x="60" width="120" height="30" as="geometry">
            <mxRectangle width="120" height="30" as="alternateBounds" />
          </mxGeometry>
        </mxCell>
        <mxCell id="y_RNbKNA8iqJO-V6Iays-267" style="shape=tableRow;horizontal=0;startSize=0;swimlaneHead=0;swimlaneBody=0;fillColor=none;collapsible=0;dropTarget=0;points=[[0,0.5],[1,0.5]];portConstraint=eastwest;top=0;left=0;right=0;bottom=0;html=1;labelBackgroundColor=none;strokeColor=#FFFFFF;fontColor=#FFFFFF;" parent="y_RNbKNA8iqJO-V6Iays-109" vertex="1">
          <mxGeometry y="90" width="180" height="30" as="geometry" />
        </mxCell>
        <mxCell id="y_RNbKNA8iqJO-V6Iays-268" value="&lt;b&gt;FK&lt;/b&gt;" style="shape=partialRectangle;connectable=0;fillColor=none;top=0;left=0;bottom=0;right=0;editable=1;overflow=hidden;html=1;whiteSpace=wrap;labelBackgroundColor=none;strokeColor=#FFFFFF;fontColor=#FFFFFF;" parent="y_RNbKNA8iqJO-V6Iays-267" vertex="1">
          <mxGeometry width="60" height="30" as="geometry">
            <mxRectangle width="60" height="30" as="alternateBounds" />
          </mxGeometry>
        </mxCell>
        <mxCell id="y_RNbKNA8iqJO-V6Iays-269" value="&lt;b&gt;Author&lt;/b&gt;" style="shape=partialRectangle;connectable=0;fillColor=none;top=0;left=0;bottom=0;right=0;align=left;spacingLeft=6;overflow=hidden;html=1;whiteSpace=wrap;labelBackgroundColor=none;strokeColor=#FFFFFF;fontColor=#FFFFFF;" parent="y_RNbKNA8iqJO-V6Iays-267" vertex="1">
          <mxGeometry x="60" width="120" height="30" as="geometry">
            <mxRectangle width="120" height="30" as="alternateBounds" />
          </mxGeometry>
        </mxCell>
        <mxCell id="y_RNbKNA8iqJO-V6Iays-116" value="" style="shape=tableRow;horizontal=0;startSize=0;swimlaneHead=0;swimlaneBody=0;fillColor=none;collapsible=0;dropTarget=0;points=[[0,0.5],[1,0.5]];portConstraint=eastwest;top=0;left=0;right=0;bottom=0;html=1;labelBackgroundColor=none;strokeColor=#FFFFFF;fontColor=#FFFFFF;" parent="y_RNbKNA8iqJO-V6Iays-109" vertex="1">
          <mxGeometry y="120" width="180" height="30" as="geometry" />
        </mxCell>
        <mxCell id="y_RNbKNA8iqJO-V6Iays-117" value="" style="shape=partialRectangle;connectable=0;fillColor=none;top=0;left=0;bottom=0;right=0;editable=1;overflow=hidden;html=1;whiteSpace=wrap;labelBackgroundColor=none;strokeColor=#FFFFFF;fontColor=#FFFFFF;" parent="y_RNbKNA8iqJO-V6Iays-116" vertex="1">
          <mxGeometry width="60" height="30" as="geometry">
            <mxRectangle width="60" height="30" as="alternateBounds" />
          </mxGeometry>
        </mxCell>
        <mxCell id="y_RNbKNA8iqJO-V6Iays-118" value="Title" style="shape=partialRectangle;connectable=0;fillColor=none;top=0;left=0;bottom=0;right=0;align=left;spacingLeft=6;overflow=hidden;html=1;whiteSpace=wrap;labelBackgroundColor=none;strokeColor=#FFFFFF;fontColor=#FFFFFF;" parent="y_RNbKNA8iqJO-V6Iays-116" vertex="1">
          <mxGeometry x="60" width="120" height="30" as="geometry">
            <mxRectangle width="120" height="30" as="alternateBounds" />
          </mxGeometry>
        </mxCell>
        <mxCell id="y_RNbKNA8iqJO-V6Iays-119" value="" style="shape=tableRow;horizontal=0;startSize=0;swimlaneHead=0;swimlaneBody=0;fillColor=none;collapsible=0;dropTarget=0;points=[[0,0.5],[1,0.5]];portConstraint=eastwest;top=0;left=0;right=0;bottom=0;html=1;labelBackgroundColor=none;strokeColor=#FFFFFF;fontColor=#FFFFFF;" parent="y_RNbKNA8iqJO-V6Iays-109" vertex="1">
          <mxGeometry y="150" width="180" height="30" as="geometry" />
        </mxCell>
        <mxCell id="y_RNbKNA8iqJO-V6Iays-120" value="" style="shape=partialRectangle;connectable=0;fillColor=none;top=0;left=0;bottom=0;right=0;editable=1;overflow=hidden;html=1;whiteSpace=wrap;labelBackgroundColor=none;strokeColor=#FFFFFF;fontColor=#FFFFFF;" parent="y_RNbKNA8iqJO-V6Iays-119" vertex="1">
          <mxGeometry width="60" height="30" as="geometry">
            <mxRectangle width="60" height="30" as="alternateBounds" />
          </mxGeometry>
        </mxCell>
        <mxCell id="y_RNbKNA8iqJO-V6Iays-121" value="Text" style="shape=partialRectangle;connectable=0;fillColor=none;top=0;left=0;bottom=0;right=0;align=left;spacingLeft=6;overflow=hidden;html=1;whiteSpace=wrap;labelBackgroundColor=none;strokeColor=#FFFFFF;fontColor=#FFFFFF;" parent="y_RNbKNA8iqJO-V6Iays-119" vertex="1">
          <mxGeometry x="60" width="120" height="30" as="geometry">
            <mxRectangle width="120" height="30" as="alternateBounds" />
          </mxGeometry>
        </mxCell>
        <mxCell id="y_RNbKNA8iqJO-V6Iays-122" style="shape=tableRow;horizontal=0;startSize=0;swimlaneHead=0;swimlaneBody=0;fillColor=none;collapsible=0;dropTarget=0;points=[[0,0.5],[1,0.5]];portConstraint=eastwest;top=0;left=0;right=0;bottom=0;html=1;labelBackgroundColor=none;strokeColor=#FFFFFF;fontColor=#FFFFFF;" parent="y_RNbKNA8iqJO-V6Iays-109" vertex="1">
          <mxGeometry y="180" width="180" height="30" as="geometry" />
        </mxCell>
        <mxCell id="y_RNbKNA8iqJO-V6Iays-123" style="shape=partialRectangle;connectable=0;fillColor=none;top=0;left=0;bottom=0;right=0;editable=1;overflow=hidden;html=1;whiteSpace=wrap;labelBackgroundColor=none;strokeColor=#FFFFFF;fontColor=#FFFFFF;" parent="y_RNbKNA8iqJO-V6Iays-122" vertex="1">
          <mxGeometry width="60" height="30" as="geometry">
            <mxRectangle width="60" height="30" as="alternateBounds" />
          </mxGeometry>
        </mxCell>
        <mxCell id="y_RNbKNA8iqJO-V6Iays-124" value="Resourcs" style="shape=partialRectangle;connectable=0;fillColor=none;top=0;left=0;bottom=0;right=0;align=left;spacingLeft=6;overflow=hidden;html=1;whiteSpace=wrap;labelBackgroundColor=none;strokeColor=#FFFFFF;fontColor=#FFFFFF;" parent="y_RNbKNA8iqJO-V6Iays-122" vertex="1">
          <mxGeometry x="60" width="120" height="30" as="geometry">
            <mxRectangle width="120" height="30" as="alternateBounds" />
          </mxGeometry>
        </mxCell>
        <mxCell id="y_RNbKNA8iqJO-V6Iays-167" value="Youth_events" style="shape=table;startSize=30;container=1;collapsible=1;childLayout=tableLayout;fixedRows=1;rowLines=0;fontStyle=1;align=center;resizeLast=1;html=1;whiteSpace=wrap;fillColor=#182E3E;strokeColor=#FFFFFF;labelBackgroundColor=none;fontColor=#FFFFFF;" parent="1" vertex="1">
          <mxGeometry x="90" y="950" width="180" height="180" as="geometry">
            <mxRectangle x="840" y="700" width="120" height="30" as="alternateBounds" />
          </mxGeometry>
        </mxCell>
        <mxCell id="y_RNbKNA8iqJO-V6Iays-168" value="" style="shape=tableRow;horizontal=0;startSize=0;swimlaneHead=0;swimlaneBody=0;fillColor=none;collapsible=0;dropTarget=0;points=[[0,0.5],[1,0.5]];portConstraint=eastwest;top=0;left=0;right=0;bottom=0;html=1;labelBackgroundColor=none;strokeColor=#FFFFFF;fontColor=#FFFFFF;" parent="y_RNbKNA8iqJO-V6Iays-167" vertex="1">
          <mxGeometry y="30" width="180" height="30" as="geometry" />
        </mxCell>
        <mxCell id="y_RNbKNA8iqJO-V6Iays-169" value="PK" style="shape=partialRectangle;connectable=0;fillColor=none;top=0;left=0;bottom=0;right=0;fontStyle=1;overflow=hidden;html=1;whiteSpace=wrap;labelBackgroundColor=none;strokeColor=#FFFFFF;fontColor=#FFFFFF;" parent="y_RNbKNA8iqJO-V6Iays-168" vertex="1">
          <mxGeometry width="60" height="30" as="geometry">
            <mxRectangle width="60" height="30" as="alternateBounds" />
          </mxGeometry>
        </mxCell>
        <mxCell id="y_RNbKNA8iqJO-V6Iays-170" value="ID" style="shape=partialRectangle;connectable=0;fillColor=none;top=0;left=0;bottom=0;right=0;align=left;spacingLeft=6;fontStyle=5;overflow=hidden;html=1;whiteSpace=wrap;labelBackgroundColor=none;strokeColor=#FFFFFF;fontColor=#FFFFFF;" parent="y_RNbKNA8iqJO-V6Iays-168" vertex="1">
          <mxGeometry x="60" width="120" height="30" as="geometry">
            <mxRectangle width="120" height="30" as="alternateBounds" />
          </mxGeometry>
        </mxCell>
        <mxCell id="y_RNbKNA8iqJO-V6Iays-174" value="" style="shape=tableRow;horizontal=0;startSize=0;swimlaneHead=0;swimlaneBody=0;fillColor=none;collapsible=0;dropTarget=0;points=[[0,0.5],[1,0.5]];portConstraint=eastwest;top=0;left=0;right=0;bottom=0;html=1;labelBackgroundColor=none;strokeColor=#FFFFFF;fontColor=#FFFFFF;" parent="y_RNbKNA8iqJO-V6Iays-167" vertex="1">
          <mxGeometry y="60" width="180" height="30" as="geometry" />
        </mxCell>
        <mxCell id="y_RNbKNA8iqJO-V6Iays-175" value="" style="shape=partialRectangle;connectable=0;fillColor=none;top=0;left=0;bottom=0;right=0;editable=1;overflow=hidden;html=1;whiteSpace=wrap;labelBackgroundColor=none;strokeColor=#FFFFFF;fontColor=#FFFFFF;" parent="y_RNbKNA8iqJO-V6Iays-174" vertex="1">
          <mxGeometry width="60" height="30" as="geometry">
            <mxRectangle width="60" height="30" as="alternateBounds" />
          </mxGeometry>
        </mxCell>
        <mxCell id="y_RNbKNA8iqJO-V6Iays-176" value="Title" style="shape=partialRectangle;connectable=0;fillColor=none;top=0;left=0;bottom=0;right=0;align=left;spacingLeft=6;overflow=hidden;html=1;whiteSpace=wrap;labelBackgroundColor=none;strokeColor=#FFFFFF;fontColor=#FFFFFF;" parent="y_RNbKNA8iqJO-V6Iays-174" vertex="1">
          <mxGeometry x="60" width="120" height="30" as="geometry">
            <mxRectangle width="120" height="30" as="alternateBounds" />
          </mxGeometry>
        </mxCell>
        <mxCell id="y_RNbKNA8iqJO-V6Iays-177" value="" style="shape=tableRow;horizontal=0;startSize=0;swimlaneHead=0;swimlaneBody=0;fillColor=none;collapsible=0;dropTarget=0;points=[[0,0.5],[1,0.5]];portConstraint=eastwest;top=0;left=0;right=0;bottom=0;html=1;labelBackgroundColor=none;strokeColor=#FFFFFF;fontColor=#FFFFFF;" parent="y_RNbKNA8iqJO-V6Iays-167" vertex="1">
          <mxGeometry y="90" width="180" height="30" as="geometry" />
        </mxCell>
        <mxCell id="y_RNbKNA8iqJO-V6Iays-178" value="" style="shape=partialRectangle;connectable=0;fillColor=none;top=0;left=0;bottom=0;right=0;editable=1;overflow=hidden;html=1;whiteSpace=wrap;labelBackgroundColor=none;strokeColor=#FFFFFF;fontColor=#FFFFFF;" parent="y_RNbKNA8iqJO-V6Iays-177" vertex="1">
          <mxGeometry width="60" height="30" as="geometry">
            <mxRectangle width="60" height="30" as="alternateBounds" />
          </mxGeometry>
        </mxCell>
        <mxCell id="y_RNbKNA8iqJO-V6Iays-179" value="date - time" style="shape=partialRectangle;connectable=0;fillColor=none;top=0;left=0;bottom=0;right=0;align=left;spacingLeft=6;overflow=hidden;html=1;whiteSpace=wrap;labelBackgroundColor=none;strokeColor=#FFFFFF;fontColor=#FFFFFF;" parent="y_RNbKNA8iqJO-V6Iays-177" vertex="1">
          <mxGeometry x="60" width="120" height="30" as="geometry">
            <mxRectangle width="120" height="30" as="alternateBounds" />
          </mxGeometry>
        </mxCell>
        <mxCell id="y_RNbKNA8iqJO-V6Iays-180" style="shape=tableRow;horizontal=0;startSize=0;swimlaneHead=0;swimlaneBody=0;fillColor=none;collapsible=0;dropTarget=0;points=[[0,0.5],[1,0.5]];portConstraint=eastwest;top=0;left=0;right=0;bottom=0;html=1;labelBackgroundColor=none;strokeColor=#FFFFFF;fontColor=#FFFFFF;" parent="y_RNbKNA8iqJO-V6Iays-167" vertex="1">
          <mxGeometry y="120" width="180" height="30" as="geometry" />
        </mxCell>
        <mxCell id="y_RNbKNA8iqJO-V6Iays-181" style="shape=partialRectangle;connectable=0;fillColor=none;top=0;left=0;bottom=0;right=0;editable=1;overflow=hidden;html=1;whiteSpace=wrap;labelBackgroundColor=none;strokeColor=#FFFFFF;fontColor=#FFFFFF;" parent="y_RNbKNA8iqJO-V6Iays-180" vertex="1">
          <mxGeometry width="60" height="30" as="geometry">
            <mxRectangle width="60" height="30" as="alternateBounds" />
          </mxGeometry>
        </mxCell>
        <mxCell id="y_RNbKNA8iqJO-V6Iays-182" value="Description" style="shape=partialRectangle;connectable=0;fillColor=none;top=0;left=0;bottom=0;right=0;align=left;spacingLeft=6;overflow=hidden;html=1;whiteSpace=wrap;labelBackgroundColor=none;strokeColor=#FFFFFF;fontColor=#FFFFFF;" parent="y_RNbKNA8iqJO-V6Iays-180" vertex="1">
          <mxGeometry x="60" width="120" height="30" as="geometry">
            <mxRectangle width="120" height="30" as="alternateBounds" />
          </mxGeometry>
        </mxCell>
        <mxCell id="y_RNbKNA8iqJO-V6Iays-273" style="shape=tableRow;horizontal=0;startSize=0;swimlaneHead=0;swimlaneBody=0;fillColor=none;collapsible=0;dropTarget=0;points=[[0,0.5],[1,0.5]];portConstraint=eastwest;top=0;left=0;right=0;bottom=0;html=1;labelBackgroundColor=none;strokeColor=#FFFFFF;fontColor=#FFFFFF;" parent="y_RNbKNA8iqJO-V6Iays-167" vertex="1">
          <mxGeometry y="150" width="180" height="30" as="geometry" />
        </mxCell>
        <mxCell id="y_RNbKNA8iqJO-V6Iays-274" style="shape=partialRectangle;connectable=0;fillColor=none;top=0;left=0;bottom=0;right=0;editable=1;overflow=hidden;html=1;whiteSpace=wrap;labelBackgroundColor=none;strokeColor=#FFFFFF;fontColor=#FFFFFF;" parent="y_RNbKNA8iqJO-V6Iays-273" vertex="1">
          <mxGeometry width="60" height="30" as="geometry">
            <mxRectangle width="60" height="30" as="alternateBounds" />
          </mxGeometry>
        </mxCell>
        <mxCell id="y_RNbKNA8iqJO-V6Iays-275" value="location" style="shape=partialRectangle;connectable=0;fillColor=none;top=0;left=0;bottom=0;right=0;align=left;spacingLeft=6;overflow=hidden;html=1;whiteSpace=wrap;labelBackgroundColor=none;strokeColor=#FFFFFF;fontColor=#FFFFFF;" parent="y_RNbKNA8iqJO-V6Iays-273" vertex="1">
          <mxGeometry x="60" width="120" height="30" as="geometry">
            <mxRectangle width="120" height="30" as="alternateBounds" />
          </mxGeometry>
        </mxCell>
        <mxCell id="y_RNbKNA8iqJO-V6Iays-189" value="Courses" style="shape=table;startSize=30;container=1;collapsible=1;childLayout=tableLayout;fixedRows=1;rowLines=0;fontStyle=1;align=center;resizeLast=1;html=1;whiteSpace=wrap;fillColor=#182E3E;strokeColor=#FFFFFF;labelBackgroundColor=none;fontColor=#FFFFFF;" parent="1" vertex="1">
          <mxGeometry x="90" y="590" width="180" height="180" as="geometry">
            <mxRectangle x="80" y="700" width="90" height="30" as="alternateBounds" />
          </mxGeometry>
        </mxCell>
        <mxCell id="y_RNbKNA8iqJO-V6Iays-190" value="" style="shape=tableRow;horizontal=0;startSize=0;swimlaneHead=0;swimlaneBody=0;fillColor=none;collapsible=0;dropTarget=0;points=[[0,0.5],[1,0.5]];portConstraint=eastwest;top=0;left=0;right=0;bottom=0;html=1;labelBackgroundColor=none;strokeColor=#FFFFFF;fontColor=#FFFFFF;" parent="y_RNbKNA8iqJO-V6Iays-189" vertex="1">
          <mxGeometry y="30" width="180" height="30" as="geometry" />
        </mxCell>
        <mxCell id="y_RNbKNA8iqJO-V6Iays-191" value="PK" style="shape=partialRectangle;connectable=0;fillColor=none;top=0;left=0;bottom=0;right=0;fontStyle=1;overflow=hidden;html=1;whiteSpace=wrap;labelBackgroundColor=none;strokeColor=#FFFFFF;fontColor=#FFFFFF;" parent="y_RNbKNA8iqJO-V6Iays-190" vertex="1">
          <mxGeometry width="60" height="30" as="geometry">
            <mxRectangle width="60" height="30" as="alternateBounds" />
          </mxGeometry>
        </mxCell>
        <mxCell id="y_RNbKNA8iqJO-V6Iays-192" value="ID" style="shape=partialRectangle;connectable=0;fillColor=none;top=0;left=0;bottom=0;right=0;align=left;spacingLeft=6;fontStyle=5;overflow=hidden;html=1;whiteSpace=wrap;labelBackgroundColor=none;strokeColor=#FFFFFF;fontColor=#FFFFFF;" parent="y_RNbKNA8iqJO-V6Iays-190" vertex="1">
          <mxGeometry x="60" width="120" height="30" as="geometry">
            <mxRectangle width="120" height="30" as="alternateBounds" />
          </mxGeometry>
        </mxCell>
        <mxCell id="y_RNbKNA8iqJO-V6Iays-202" style="shape=tableRow;horizontal=0;startSize=0;swimlaneHead=0;swimlaneBody=0;fillColor=none;collapsible=0;dropTarget=0;points=[[0,0.5],[1,0.5]];portConstraint=eastwest;top=0;left=0;right=0;bottom=0;html=1;labelBackgroundColor=none;strokeColor=#FFFFFF;fontColor=#FFFFFF;" parent="y_RNbKNA8iqJO-V6Iays-189" vertex="1">
          <mxGeometry y="60" width="180" height="30" as="geometry" />
        </mxCell>
        <mxCell id="y_RNbKNA8iqJO-V6Iays-203" value="&lt;b&gt;FK&lt;/b&gt;" style="shape=partialRectangle;connectable=0;fillColor=none;top=0;left=0;bottom=0;right=0;editable=1;overflow=hidden;html=1;whiteSpace=wrap;labelBackgroundColor=none;strokeColor=#FFFFFF;fontColor=#FFFFFF;" parent="y_RNbKNA8iqJO-V6Iays-202" vertex="1">
          <mxGeometry width="60" height="30" as="geometry">
            <mxRectangle width="60" height="30" as="alternateBounds" />
          </mxGeometry>
        </mxCell>
        <mxCell id="y_RNbKNA8iqJO-V6Iays-204" value="&lt;b&gt;Educater#&lt;/b&gt;" style="shape=partialRectangle;connectable=0;fillColor=none;top=0;left=0;bottom=0;right=0;align=left;spacingLeft=6;overflow=hidden;html=1;whiteSpace=wrap;labelBackgroundColor=none;strokeColor=#FFFFFF;fontColor=#FFFFFF;" parent="y_RNbKNA8iqJO-V6Iays-202" vertex="1">
          <mxGeometry x="60" width="120" height="30" as="geometry">
            <mxRectangle width="120" height="30" as="alternateBounds" />
          </mxGeometry>
        </mxCell>
        <mxCell id="y_RNbKNA8iqJO-V6Iays-196" value="" style="shape=tableRow;horizontal=0;startSize=0;swimlaneHead=0;swimlaneBody=0;fillColor=none;collapsible=0;dropTarget=0;points=[[0,0.5],[1,0.5]];portConstraint=eastwest;top=0;left=0;right=0;bottom=0;html=1;labelBackgroundColor=none;strokeColor=#FFFFFF;fontColor=#FFFFFF;" parent="y_RNbKNA8iqJO-V6Iays-189" vertex="1">
          <mxGeometry y="90" width="180" height="30" as="geometry" />
        </mxCell>
        <mxCell id="y_RNbKNA8iqJO-V6Iays-197" value="" style="shape=partialRectangle;connectable=0;fillColor=none;top=0;left=0;bottom=0;right=0;editable=1;overflow=hidden;html=1;whiteSpace=wrap;labelBackgroundColor=none;strokeColor=#FFFFFF;fontColor=#FFFFFF;" parent="y_RNbKNA8iqJO-V6Iays-196" vertex="1">
          <mxGeometry width="60" height="30" as="geometry">
            <mxRectangle width="60" height="30" as="alternateBounds" />
          </mxGeometry>
        </mxCell>
        <mxCell id="y_RNbKNA8iqJO-V6Iays-198" value="Name" style="shape=partialRectangle;connectable=0;fillColor=none;top=0;left=0;bottom=0;right=0;align=left;spacingLeft=6;overflow=hidden;html=1;whiteSpace=wrap;labelBackgroundColor=none;strokeColor=#FFFFFF;fontColor=#FFFFFF;" parent="y_RNbKNA8iqJO-V6Iays-196" vertex="1">
          <mxGeometry x="60" width="120" height="30" as="geometry">
            <mxRectangle width="120" height="30" as="alternateBounds" />
          </mxGeometry>
        </mxCell>
        <mxCell id="y_RNbKNA8iqJO-V6Iays-199" value="" style="shape=tableRow;horizontal=0;startSize=0;swimlaneHead=0;swimlaneBody=0;fillColor=none;collapsible=0;dropTarget=0;points=[[0,0.5],[1,0.5]];portConstraint=eastwest;top=0;left=0;right=0;bottom=0;html=1;labelBackgroundColor=none;strokeColor=#FFFFFF;fontColor=#FFFFFF;" parent="y_RNbKNA8iqJO-V6Iays-189" vertex="1">
          <mxGeometry y="120" width="180" height="30" as="geometry" />
        </mxCell>
        <mxCell id="y_RNbKNA8iqJO-V6Iays-200" value="" style="shape=partialRectangle;connectable=0;fillColor=none;top=0;left=0;bottom=0;right=0;editable=1;overflow=hidden;html=1;whiteSpace=wrap;labelBackgroundColor=none;strokeColor=#FFFFFF;fontColor=#FFFFFF;" parent="y_RNbKNA8iqJO-V6Iays-199" vertex="1">
          <mxGeometry width="60" height="30" as="geometry">
            <mxRectangle width="60" height="30" as="alternateBounds" />
          </mxGeometry>
        </mxCell>
        <mxCell id="y_RNbKNA8iqJO-V6Iays-201" value="Price" style="shape=partialRectangle;connectable=0;fillColor=none;top=0;left=0;bottom=0;right=0;align=left;spacingLeft=6;overflow=hidden;html=1;whiteSpace=wrap;labelBackgroundColor=none;strokeColor=#FFFFFF;fontColor=#FFFFFF;" parent="y_RNbKNA8iqJO-V6Iays-199" vertex="1">
          <mxGeometry x="60" width="120" height="30" as="geometry">
            <mxRectangle width="120" height="30" as="alternateBounds" />
          </mxGeometry>
        </mxCell>
        <mxCell id="y_RNbKNA8iqJO-V6Iays-227" style="shape=tableRow;horizontal=0;startSize=0;swimlaneHead=0;swimlaneBody=0;fillColor=none;collapsible=0;dropTarget=0;points=[[0,0.5],[1,0.5]];portConstraint=eastwest;top=0;left=0;right=0;bottom=0;html=1;labelBackgroundColor=none;strokeColor=#FFFFFF;fontColor=#FFFFFF;" parent="y_RNbKNA8iqJO-V6Iays-189" vertex="1">
          <mxGeometry y="150" width="180" height="30" as="geometry" />
        </mxCell>
        <mxCell id="y_RNbKNA8iqJO-V6Iays-228" style="shape=partialRectangle;connectable=0;fillColor=none;top=0;left=0;bottom=0;right=0;editable=1;overflow=hidden;html=1;whiteSpace=wrap;labelBackgroundColor=none;strokeColor=#FFFFFF;fontColor=#FFFFFF;" parent="y_RNbKNA8iqJO-V6Iays-227" vertex="1">
          <mxGeometry width="60" height="30" as="geometry">
            <mxRectangle width="60" height="30" as="alternateBounds" />
          </mxGeometry>
        </mxCell>
        <mxCell id="y_RNbKNA8iqJO-V6Iays-229" value="Image_link" style="shape=partialRectangle;connectable=0;fillColor=none;top=0;left=0;bottom=0;right=0;align=left;spacingLeft=6;overflow=hidden;html=1;whiteSpace=wrap;labelBackgroundColor=none;strokeColor=#FFFFFF;fontColor=#FFFFFF;" parent="y_RNbKNA8iqJO-V6Iays-227" vertex="1">
          <mxGeometry x="60" width="120" height="30" as="geometry">
            <mxRectangle width="120" height="30" as="alternateBounds" />
          </mxGeometry>
        </mxCell>
        <mxCell id="y_RNbKNA8iqJO-V6Iays-235" style="edgeStyle=orthogonalEdgeStyle;rounded=0;orthogonalLoop=1;jettySize=auto;html=1;exitX=0;exitY=0.5;exitDx=0;exitDy=0;entryX=0;entryY=0.5;entryDx=0;entryDy=0;labelBackgroundColor=none;strokeColor=#23445D;fontColor=default;" parent="y_RNbKNA8iqJO-V6Iays-189" source="y_RNbKNA8iqJO-V6Iays-202" target="y_RNbKNA8iqJO-V6Iays-202" edge="1">
          <mxGeometry relative="1" as="geometry" />
        </mxCell>
        <mxCell id="y_RNbKNA8iqJO-V6Iays-211" value="Cource_content" style="shape=table;startSize=30;container=1;collapsible=1;childLayout=tableLayout;fixedRows=1;rowLines=0;fontStyle=1;align=center;resizeLast=1;html=1;whiteSpace=wrap;labelBackgroundColor=none;fillColor=#182E3E;strokeColor=#FFFFFF;fontColor=#FFFFFF;" parent="1" vertex="1">
          <mxGeometry x="330" y="710" width="180" height="210" as="geometry">
            <mxRectangle x="310" y="840" width="130" height="30" as="alternateBounds" />
          </mxGeometry>
        </mxCell>
        <mxCell id="y_RNbKNA8iqJO-V6Iays-212" value="" style="shape=tableRow;horizontal=0;startSize=0;swimlaneHead=0;swimlaneBody=0;fillColor=none;collapsible=0;dropTarget=0;points=[[0,0.5],[1,0.5]];portConstraint=eastwest;top=0;left=0;right=0;bottom=0;html=1;labelBackgroundColor=none;strokeColor=#FFFFFF;fontColor=#FFFFFF;" parent="y_RNbKNA8iqJO-V6Iays-211" vertex="1">
          <mxGeometry y="30" width="180" height="30" as="geometry" />
        </mxCell>
        <mxCell id="y_RNbKNA8iqJO-V6Iays-213" value="PK" style="shape=partialRectangle;connectable=0;fillColor=none;top=0;left=0;bottom=0;right=0;fontStyle=1;overflow=hidden;html=1;whiteSpace=wrap;labelBackgroundColor=none;strokeColor=#FFFFFF;fontColor=#FFFFFF;" parent="y_RNbKNA8iqJO-V6Iays-212" vertex="1">
          <mxGeometry width="60" height="30" as="geometry">
            <mxRectangle width="60" height="30" as="alternateBounds" />
          </mxGeometry>
        </mxCell>
        <mxCell id="y_RNbKNA8iqJO-V6Iays-214" value="ID" style="shape=partialRectangle;connectable=0;fillColor=none;top=0;left=0;bottom=0;right=0;align=left;spacingLeft=6;fontStyle=5;overflow=hidden;html=1;whiteSpace=wrap;labelBackgroundColor=none;strokeColor=#FFFFFF;fontColor=#FFFFFF;" parent="y_RNbKNA8iqJO-V6Iays-212" vertex="1">
          <mxGeometry x="60" width="120" height="30" as="geometry">
            <mxRectangle width="120" height="30" as="alternateBounds" />
          </mxGeometry>
        </mxCell>
        <mxCell id="y_RNbKNA8iqJO-V6Iays-215" style="shape=tableRow;horizontal=0;startSize=0;swimlaneHead=0;swimlaneBody=0;fillColor=none;collapsible=0;dropTarget=0;points=[[0,0.5],[1,0.5]];portConstraint=eastwest;top=0;left=0;right=0;bottom=0;html=1;labelBackgroundColor=none;strokeColor=#FFFFFF;fontColor=#FFFFFF;" parent="y_RNbKNA8iqJO-V6Iays-211" vertex="1">
          <mxGeometry y="60" width="180" height="30" as="geometry" />
        </mxCell>
        <mxCell id="y_RNbKNA8iqJO-V6Iays-216" value="&lt;b&gt;FK&lt;/b&gt;" style="shape=partialRectangle;connectable=0;fillColor=none;top=0;left=0;bottom=0;right=0;editable=1;overflow=hidden;html=1;whiteSpace=wrap;labelBackgroundColor=none;strokeColor=#FFFFFF;fontColor=#FFFFFF;" parent="y_RNbKNA8iqJO-V6Iays-215" vertex="1">
          <mxGeometry width="60" height="30" as="geometry">
            <mxRectangle width="60" height="30" as="alternateBounds" />
          </mxGeometry>
        </mxCell>
        <mxCell id="y_RNbKNA8iqJO-V6Iays-217" value="&lt;b&gt;Course#&lt;/b&gt;" style="shape=partialRectangle;connectable=0;fillColor=none;top=0;left=0;bottom=0;right=0;align=left;spacingLeft=6;overflow=hidden;html=1;whiteSpace=wrap;labelBackgroundColor=none;strokeColor=#FFFFFF;fontColor=#FFFFFF;" parent="y_RNbKNA8iqJO-V6Iays-215" vertex="1">
          <mxGeometry x="60" width="120" height="30" as="geometry">
            <mxRectangle width="120" height="30" as="alternateBounds" />
          </mxGeometry>
        </mxCell>
        <mxCell id="y_RNbKNA8iqJO-V6Iays-224" style="shape=tableRow;horizontal=0;startSize=0;swimlaneHead=0;swimlaneBody=0;fillColor=none;collapsible=0;dropTarget=0;points=[[0,0.5],[1,0.5]];portConstraint=eastwest;top=0;left=0;right=0;bottom=0;html=1;labelBackgroundColor=none;strokeColor=#FFFFFF;fontColor=#FFFFFF;" parent="y_RNbKNA8iqJO-V6Iays-211" vertex="1">
          <mxGeometry y="90" width="180" height="30" as="geometry" />
        </mxCell>
        <mxCell id="y_RNbKNA8iqJO-V6Iays-225" style="shape=partialRectangle;connectable=0;fillColor=none;top=0;left=0;bottom=0;right=0;editable=1;overflow=hidden;html=1;whiteSpace=wrap;labelBackgroundColor=none;strokeColor=#FFFFFF;fontColor=#FFFFFF;" parent="y_RNbKNA8iqJO-V6Iays-224" vertex="1">
          <mxGeometry width="60" height="30" as="geometry">
            <mxRectangle width="60" height="30" as="alternateBounds" />
          </mxGeometry>
        </mxCell>
        <mxCell id="y_RNbKNA8iqJO-V6Iays-226" value="Title" style="shape=partialRectangle;connectable=0;fillColor=none;top=0;left=0;bottom=0;right=0;align=left;spacingLeft=6;overflow=hidden;html=1;whiteSpace=wrap;labelBackgroundColor=none;strokeColor=#FFFFFF;fontColor=#FFFFFF;" parent="y_RNbKNA8iqJO-V6Iays-224" vertex="1">
          <mxGeometry x="60" width="120" height="30" as="geometry">
            <mxRectangle width="120" height="30" as="alternateBounds" />
          </mxGeometry>
        </mxCell>
        <mxCell id="y_RNbKNA8iqJO-V6Iays-221" value="" style="shape=tableRow;horizontal=0;startSize=0;swimlaneHead=0;swimlaneBody=0;fillColor=none;collapsible=0;dropTarget=0;points=[[0,0.5],[1,0.5]];portConstraint=eastwest;top=0;left=0;right=0;bottom=0;html=1;labelBackgroundColor=none;strokeColor=#FFFFFF;fontColor=#FFFFFF;" parent="y_RNbKNA8iqJO-V6Iays-211" vertex="1">
          <mxGeometry y="120" width="180" height="30" as="geometry" />
        </mxCell>
        <mxCell id="y_RNbKNA8iqJO-V6Iays-222" value="" style="shape=partialRectangle;connectable=0;fillColor=none;top=0;left=0;bottom=0;right=0;editable=1;overflow=hidden;html=1;whiteSpace=wrap;labelBackgroundColor=none;strokeColor=#FFFFFF;fontColor=#FFFFFF;" parent="y_RNbKNA8iqJO-V6Iays-221" vertex="1">
          <mxGeometry width="60" height="30" as="geometry">
            <mxRectangle width="60" height="30" as="alternateBounds" />
          </mxGeometry>
        </mxCell>
        <mxCell id="y_RNbKNA8iqJO-V6Iays-223" value="discription" style="shape=partialRectangle;connectable=0;fillColor=none;top=0;left=0;bottom=0;right=0;align=left;spacingLeft=6;overflow=hidden;html=1;whiteSpace=wrap;labelBackgroundColor=none;strokeColor=#FFFFFF;fontColor=#FFFFFF;" parent="y_RNbKNA8iqJO-V6Iays-221" vertex="1">
          <mxGeometry x="60" width="120" height="30" as="geometry">
            <mxRectangle width="120" height="30" as="alternateBounds" />
          </mxGeometry>
        </mxCell>
        <mxCell id="y_RNbKNA8iqJO-V6Iays-218" value="" style="shape=tableRow;horizontal=0;startSize=0;swimlaneHead=0;swimlaneBody=0;fillColor=none;collapsible=0;dropTarget=0;points=[[0,0.5],[1,0.5]];portConstraint=eastwest;top=0;left=0;right=0;bottom=0;html=1;labelBackgroundColor=none;strokeColor=#FFFFFF;fontColor=#FFFFFF;" parent="y_RNbKNA8iqJO-V6Iays-211" vertex="1">
          <mxGeometry y="150" width="180" height="30" as="geometry" />
        </mxCell>
        <mxCell id="y_RNbKNA8iqJO-V6Iays-219" value="" style="shape=partialRectangle;connectable=0;fillColor=none;top=0;left=0;bottom=0;right=0;editable=1;overflow=hidden;html=1;whiteSpace=wrap;labelBackgroundColor=none;strokeColor=#FFFFFF;fontColor=#FFFFFF;" parent="y_RNbKNA8iqJO-V6Iays-218" vertex="1">
          <mxGeometry width="60" height="30" as="geometry">
            <mxRectangle width="60" height="30" as="alternateBounds" />
          </mxGeometry>
        </mxCell>
        <mxCell id="y_RNbKNA8iqJO-V6Iays-220" value="video_link" style="shape=partialRectangle;connectable=0;fillColor=none;top=0;left=0;bottom=0;right=0;align=left;spacingLeft=6;overflow=hidden;html=1;whiteSpace=wrap;labelBackgroundColor=none;strokeColor=#FFFFFF;fontColor=#FFFFFF;" parent="y_RNbKNA8iqJO-V6Iays-218" vertex="1">
          <mxGeometry x="60" width="120" height="30" as="geometry">
            <mxRectangle width="120" height="30" as="alternateBounds" />
          </mxGeometry>
        </mxCell>
        <mxCell id="y_RNbKNA8iqJO-V6Iays-230" style="shape=tableRow;horizontal=0;startSize=0;swimlaneHead=0;swimlaneBody=0;fillColor=none;collapsible=0;dropTarget=0;points=[[0,0.5],[1,0.5]];portConstraint=eastwest;top=0;left=0;right=0;bottom=0;html=1;labelBackgroundColor=none;strokeColor=#FFFFFF;fontColor=#FFFFFF;" parent="y_RNbKNA8iqJO-V6Iays-211" vertex="1">
          <mxGeometry y="180" width="180" height="30" as="geometry" />
        </mxCell>
        <mxCell id="y_RNbKNA8iqJO-V6Iays-231" style="shape=partialRectangle;connectable=0;fillColor=none;top=0;left=0;bottom=0;right=0;editable=1;overflow=hidden;html=1;whiteSpace=wrap;labelBackgroundColor=none;strokeColor=#FFFFFF;fontColor=#FFFFFF;" parent="y_RNbKNA8iqJO-V6Iays-230" vertex="1">
          <mxGeometry width="60" height="30" as="geometry">
            <mxRectangle width="60" height="30" as="alternateBounds" />
          </mxGeometry>
        </mxCell>
        <mxCell id="y_RNbKNA8iqJO-V6Iays-232" value="Image_link" style="shape=partialRectangle;connectable=0;fillColor=none;top=0;left=0;bottom=0;right=0;align=left;spacingLeft=6;overflow=hidden;html=1;whiteSpace=wrap;labelBackgroundColor=none;strokeColor=#FFFFFF;fontColor=#FFFFFF;" parent="y_RNbKNA8iqJO-V6Iays-230" vertex="1">
          <mxGeometry x="60" width="120" height="30" as="geometry">
            <mxRectangle width="120" height="30" as="alternateBounds" />
          </mxGeometry>
        </mxCell>
        <mxCell id="y_RNbKNA8iqJO-V6Iays-233" style="edgeStyle=orthogonalEdgeStyle;rounded=0;orthogonalLoop=1;jettySize=auto;html=1;entryX=1;entryY=0.5;entryDx=0;entryDy=0;labelBackgroundColor=none;strokeColor=#23445D;fontColor=default;" parent="1" source="y_RNbKNA8iqJO-V6Iays-215" target="y_RNbKNA8iqJO-V6Iays-190" edge="1">
          <mxGeometry relative="1" as="geometry" />
        </mxCell>
        <mxCell id="y_RNbKNA8iqJO-V6Iays-236" style="edgeStyle=orthogonalEdgeStyle;rounded=0;orthogonalLoop=1;jettySize=auto;html=1;exitX=0;exitY=0.5;exitDx=0;exitDy=0;labelBackgroundColor=none;strokeColor=#23445D;fontColor=default;" parent="1" source="y_RNbKNA8iqJO-V6Iays-202" target="y_RNbKNA8iqJO-V6Iays-15" edge="1">
          <mxGeometry relative="1" as="geometry">
            <Array as="points">
              <mxPoint x="70" y="665" />
              <mxPoint x="70" y="125" />
            </Array>
          </mxGeometry>
        </mxCell>
        <mxCell id="y_RNbKNA8iqJO-V6Iays-250" value="categories" style="shape=table;startSize=30;container=1;collapsible=1;childLayout=tableLayout;fixedRows=1;rowLines=0;fontStyle=1;align=center;resizeLast=1;html=1;whiteSpace=wrap;fillColor=#182E3E;fontColor=#FFFFFF;strokeColor=#FFFFFF;labelBackgroundColor=none;" parent="1" vertex="1">
          <mxGeometry x="600" y="440" width="180" height="120" as="geometry">
            <mxRectangle x="550" y="520" width="100" height="30" as="alternateBounds" />
          </mxGeometry>
        </mxCell>
        <mxCell id="y_RNbKNA8iqJO-V6Iays-251" value="" style="shape=tableRow;horizontal=0;startSize=0;swimlaneHead=0;swimlaneBody=0;fillColor=none;collapsible=0;dropTarget=0;points=[[0,0.5],[1,0.5]];portConstraint=eastwest;top=0;left=0;right=0;bottom=0;html=1;labelBackgroundColor=none;strokeColor=#FFFFFF;fontColor=#FFFFFF;" parent="y_RNbKNA8iqJO-V6Iays-250" vertex="1">
          <mxGeometry y="30" width="180" height="30" as="geometry" />
        </mxCell>
        <mxCell id="y_RNbKNA8iqJO-V6Iays-252" value="PK" style="shape=partialRectangle;connectable=0;fillColor=none;top=0;left=0;bottom=0;right=0;fontStyle=1;overflow=hidden;html=1;whiteSpace=wrap;labelBackgroundColor=none;strokeColor=#FFFFFF;fontColor=#FFFFFF;" parent="y_RNbKNA8iqJO-V6Iays-251" vertex="1">
          <mxGeometry width="60" height="30" as="geometry">
            <mxRectangle width="60" height="30" as="alternateBounds" />
          </mxGeometry>
        </mxCell>
        <mxCell id="y_RNbKNA8iqJO-V6Iays-253" value="ID" style="shape=partialRectangle;connectable=0;fillColor=none;top=0;left=0;bottom=0;right=0;align=left;spacingLeft=6;fontStyle=5;overflow=hidden;html=1;whiteSpace=wrap;labelBackgroundColor=none;strokeColor=#FFFFFF;fontColor=#FFFFFF;" parent="y_RNbKNA8iqJO-V6Iays-251" vertex="1">
          <mxGeometry x="60" width="120" height="30" as="geometry">
            <mxRectangle width="120" height="30" as="alternateBounds" />
          </mxGeometry>
        </mxCell>
        <mxCell id="y_RNbKNA8iqJO-V6Iays-254" value="" style="shape=tableRow;horizontal=0;startSize=0;swimlaneHead=0;swimlaneBody=0;fillColor=none;collapsible=0;dropTarget=0;points=[[0,0.5],[1,0.5]];portConstraint=eastwest;top=0;left=0;right=0;bottom=0;html=1;labelBackgroundColor=none;strokeColor=#FFFFFF;fontColor=#FFFFFF;" parent="y_RNbKNA8iqJO-V6Iays-250" vertex="1">
          <mxGeometry y="60" width="180" height="30" as="geometry" />
        </mxCell>
        <mxCell id="y_RNbKNA8iqJO-V6Iays-255" value="" style="shape=partialRectangle;connectable=0;fillColor=none;top=0;left=0;bottom=0;right=0;editable=1;overflow=hidden;html=1;whiteSpace=wrap;labelBackgroundColor=none;strokeColor=#FFFFFF;fontColor=#FFFFFF;" parent="y_RNbKNA8iqJO-V6Iays-254" vertex="1">
          <mxGeometry width="60" height="30" as="geometry">
            <mxRectangle width="60" height="30" as="alternateBounds" />
          </mxGeometry>
        </mxCell>
        <mxCell id="y_RNbKNA8iqJO-V6Iays-256" value="Title" style="shape=partialRectangle;connectable=0;fillColor=none;top=0;left=0;bottom=0;right=0;align=left;spacingLeft=6;overflow=hidden;html=1;whiteSpace=wrap;labelBackgroundColor=none;strokeColor=#FFFFFF;fontColor=#FFFFFF;" parent="y_RNbKNA8iqJO-V6Iays-254" vertex="1">
          <mxGeometry x="60" width="120" height="30" as="geometry">
            <mxRectangle width="120" height="30" as="alternateBounds" />
          </mxGeometry>
        </mxCell>
        <mxCell id="y_RNbKNA8iqJO-V6Iays-257" value="" style="shape=tableRow;horizontal=0;startSize=0;swimlaneHead=0;swimlaneBody=0;fillColor=none;collapsible=0;dropTarget=0;points=[[0,0.5],[1,0.5]];portConstraint=eastwest;top=0;left=0;right=0;bottom=0;html=1;labelBackgroundColor=none;strokeColor=#FFFFFF;fontColor=#FFFFFF;" parent="y_RNbKNA8iqJO-V6Iays-250" vertex="1">
          <mxGeometry y="90" width="180" height="30" as="geometry" />
        </mxCell>
        <mxCell id="y_RNbKNA8iqJO-V6Iays-258" value="" style="shape=partialRectangle;connectable=0;fillColor=none;top=0;left=0;bottom=0;right=0;editable=1;overflow=hidden;html=1;whiteSpace=wrap;labelBackgroundColor=none;strokeColor=#FFFFFF;fontColor=#FFFFFF;" parent="y_RNbKNA8iqJO-V6Iays-257" vertex="1">
          <mxGeometry width="60" height="30" as="geometry">
            <mxRectangle width="60" height="30" as="alternateBounds" />
          </mxGeometry>
        </mxCell>
        <mxCell id="y_RNbKNA8iqJO-V6Iays-259" value="Description" style="shape=partialRectangle;connectable=0;fillColor=none;top=0;left=0;bottom=0;right=0;align=left;spacingLeft=6;overflow=hidden;html=1;whiteSpace=wrap;labelBackgroundColor=none;strokeColor=#FFFFFF;fontColor=#FFFFFF;" parent="y_RNbKNA8iqJO-V6Iays-257" vertex="1">
          <mxGeometry x="60" width="120" height="30" as="geometry">
            <mxRectangle width="120" height="30" as="alternateBounds" />
          </mxGeometry>
        </mxCell>
        <mxCell id="y_RNbKNA8iqJO-V6Iays-266" style="edgeStyle=orthogonalEdgeStyle;rounded=0;orthogonalLoop=1;jettySize=auto;html=1;entryX=1;entryY=0.5;entryDx=0;entryDy=0;labelBackgroundColor=none;strokeColor=#23445D;fontColor=default;" parent="1" source="y_RNbKNA8iqJO-V6Iays-263" target="y_RNbKNA8iqJO-V6Iays-251" edge="1">
          <mxGeometry relative="1" as="geometry" />
        </mxCell>
        <mxCell id="y_RNbKNA8iqJO-V6Iays-276" style="edgeStyle=orthogonalEdgeStyle;rounded=0;orthogonalLoop=1;jettySize=auto;html=1;exitX=0;exitY=0.5;exitDx=0;exitDy=0;entryX=0;entryY=0.5;entryDx=0;entryDy=0;labelBackgroundColor=none;strokeColor=#23445D;fontColor=default;" parent="1" source="y_RNbKNA8iqJO-V6Iays-267" target="y_RNbKNA8iqJO-V6Iays-15" edge="1">
          <mxGeometry relative="1" as="geometry">
            <Array as="points">
              <mxPoint x="600" y="690" />
              <mxPoint x="550" y="690" />
              <mxPoint x="550" y="550" />
              <mxPoint x="70" y="550" />
              <mxPoint x="70" y="125" />
            </Array>
          </mxGeometry>
        </mxCell>
        <mxCell id="y_RNbKNA8iqJO-V6Iays-277" value="Celectial_events" style="shape=table;startSize=30;container=1;collapsible=1;childLayout=tableLayout;fixedRows=1;rowLines=0;fontStyle=1;align=center;resizeLast=1;html=1;whiteSpace=wrap;fillColor=#182E3E;strokeColor=#FFFFFF;labelBackgroundColor=none;fontColor=#FFFFFF;" parent="1" vertex="1">
          <mxGeometry x="90" y="1190" width="180" height="180" as="geometry">
            <mxRectangle x="840" y="700" width="120" height="30" as="alternateBounds" />
          </mxGeometry>
        </mxCell>
        <mxCell id="y_RNbKNA8iqJO-V6Iays-278" value="" style="shape=tableRow;horizontal=0;startSize=0;swimlaneHead=0;swimlaneBody=0;fillColor=none;collapsible=0;dropTarget=0;points=[[0,0.5],[1,0.5]];portConstraint=eastwest;top=0;left=0;right=0;bottom=0;html=1;labelBackgroundColor=none;strokeColor=#FFFFFF;fontColor=#FFFFFF;" parent="y_RNbKNA8iqJO-V6Iays-277" vertex="1">
          <mxGeometry y="30" width="180" height="30" as="geometry" />
        </mxCell>
        <mxCell id="y_RNbKNA8iqJO-V6Iays-279" value="PK" style="shape=partialRectangle;connectable=0;fillColor=none;top=0;left=0;bottom=0;right=0;fontStyle=1;overflow=hidden;html=1;whiteSpace=wrap;labelBackgroundColor=none;strokeColor=#FFFFFF;fontColor=#FFFFFF;" parent="y_RNbKNA8iqJO-V6Iays-278" vertex="1">
          <mxGeometry width="60" height="30" as="geometry">
            <mxRectangle width="60" height="30" as="alternateBounds" />
          </mxGeometry>
        </mxCell>
        <mxCell id="y_RNbKNA8iqJO-V6Iays-280" value="ID" style="shape=partialRectangle;connectable=0;fillColor=none;top=0;left=0;bottom=0;right=0;align=left;spacingLeft=6;fontStyle=5;overflow=hidden;html=1;whiteSpace=wrap;labelBackgroundColor=none;strokeColor=#FFFFFF;fontColor=#FFFFFF;" parent="y_RNbKNA8iqJO-V6Iays-278" vertex="1">
          <mxGeometry x="60" width="120" height="30" as="geometry">
            <mxRectangle width="120" height="30" as="alternateBounds" />
          </mxGeometry>
        </mxCell>
        <mxCell id="y_RNbKNA8iqJO-V6Iays-281" value="" style="shape=tableRow;horizontal=0;startSize=0;swimlaneHead=0;swimlaneBody=0;fillColor=none;collapsible=0;dropTarget=0;points=[[0,0.5],[1,0.5]];portConstraint=eastwest;top=0;left=0;right=0;bottom=0;html=1;labelBackgroundColor=none;strokeColor=#FFFFFF;fontColor=#FFFFFF;" parent="y_RNbKNA8iqJO-V6Iays-277" vertex="1">
          <mxGeometry y="60" width="180" height="30" as="geometry" />
        </mxCell>
        <mxCell id="y_RNbKNA8iqJO-V6Iays-282" value="" style="shape=partialRectangle;connectable=0;fillColor=none;top=0;left=0;bottom=0;right=0;editable=1;overflow=hidden;html=1;whiteSpace=wrap;labelBackgroundColor=none;strokeColor=#FFFFFF;fontColor=#FFFFFF;" parent="y_RNbKNA8iqJO-V6Iays-281" vertex="1">
          <mxGeometry width="60" height="30" as="geometry">
            <mxRectangle width="60" height="30" as="alternateBounds" />
          </mxGeometry>
        </mxCell>
        <mxCell id="y_RNbKNA8iqJO-V6Iays-283" value="Title" style="shape=partialRectangle;connectable=0;fillColor=none;top=0;left=0;bottom=0;right=0;align=left;spacingLeft=6;overflow=hidden;html=1;whiteSpace=wrap;labelBackgroundColor=none;strokeColor=#FFFFFF;fontColor=#FFFFFF;" parent="y_RNbKNA8iqJO-V6Iays-281" vertex="1">
          <mxGeometry x="60" width="120" height="30" as="geometry">
            <mxRectangle width="120" height="30" as="alternateBounds" />
          </mxGeometry>
        </mxCell>
        <mxCell id="y_RNbKNA8iqJO-V6Iays-284" value="" style="shape=tableRow;horizontal=0;startSize=0;swimlaneHead=0;swimlaneBody=0;fillColor=none;collapsible=0;dropTarget=0;points=[[0,0.5],[1,0.5]];portConstraint=eastwest;top=0;left=0;right=0;bottom=0;html=1;labelBackgroundColor=none;strokeColor=#FFFFFF;fontColor=#FFFFFF;" parent="y_RNbKNA8iqJO-V6Iays-277" vertex="1">
          <mxGeometry y="90" width="180" height="30" as="geometry" />
        </mxCell>
        <mxCell id="y_RNbKNA8iqJO-V6Iays-285" value="" style="shape=partialRectangle;connectable=0;fillColor=none;top=0;left=0;bottom=0;right=0;editable=1;overflow=hidden;html=1;whiteSpace=wrap;labelBackgroundColor=none;strokeColor=#FFFFFF;fontColor=#FFFFFF;" parent="y_RNbKNA8iqJO-V6Iays-284" vertex="1">
          <mxGeometry width="60" height="30" as="geometry">
            <mxRectangle width="60" height="30" as="alternateBounds" />
          </mxGeometry>
        </mxCell>
        <mxCell id="y_RNbKNA8iqJO-V6Iays-286" value="date - time" style="shape=partialRectangle;connectable=0;fillColor=none;top=0;left=0;bottom=0;right=0;align=left;spacingLeft=6;overflow=hidden;html=1;whiteSpace=wrap;labelBackgroundColor=none;strokeColor=#FFFFFF;fontColor=#FFFFFF;" parent="y_RNbKNA8iqJO-V6Iays-284" vertex="1">
          <mxGeometry x="60" width="120" height="30" as="geometry">
            <mxRectangle width="120" height="30" as="alternateBounds" />
          </mxGeometry>
        </mxCell>
        <mxCell id="y_RNbKNA8iqJO-V6Iays-287" style="shape=tableRow;horizontal=0;startSize=0;swimlaneHead=0;swimlaneBody=0;fillColor=none;collapsible=0;dropTarget=0;points=[[0,0.5],[1,0.5]];portConstraint=eastwest;top=0;left=0;right=0;bottom=0;html=1;labelBackgroundColor=none;strokeColor=#FFFFFF;fontColor=#FFFFFF;" parent="y_RNbKNA8iqJO-V6Iays-277" vertex="1">
          <mxGeometry y="120" width="180" height="30" as="geometry" />
        </mxCell>
        <mxCell id="y_RNbKNA8iqJO-V6Iays-288" style="shape=partialRectangle;connectable=0;fillColor=none;top=0;left=0;bottom=0;right=0;editable=1;overflow=hidden;html=1;whiteSpace=wrap;labelBackgroundColor=none;strokeColor=#FFFFFF;fontColor=#FFFFFF;" parent="y_RNbKNA8iqJO-V6Iays-287" vertex="1">
          <mxGeometry width="60" height="30" as="geometry">
            <mxRectangle width="60" height="30" as="alternateBounds" />
          </mxGeometry>
        </mxCell>
        <mxCell id="y_RNbKNA8iqJO-V6Iays-289" value="Description" style="shape=partialRectangle;connectable=0;fillColor=none;top=0;left=0;bottom=0;right=0;align=left;spacingLeft=6;overflow=hidden;html=1;whiteSpace=wrap;labelBackgroundColor=none;strokeColor=#FFFFFF;fontColor=#FFFFFF;" parent="y_RNbKNA8iqJO-V6Iays-287" vertex="1">
          <mxGeometry x="60" width="120" height="30" as="geometry">
            <mxRectangle width="120" height="30" as="alternateBounds" />
          </mxGeometry>
        </mxCell>
        <mxCell id="y_RNbKNA8iqJO-V6Iays-290" style="shape=tableRow;horizontal=0;startSize=0;swimlaneHead=0;swimlaneBody=0;fillColor=none;collapsible=0;dropTarget=0;points=[[0,0.5],[1,0.5]];portConstraint=eastwest;top=0;left=0;right=0;bottom=0;html=1;labelBackgroundColor=none;strokeColor=#FFFFFF;fontColor=#FFFFFF;" parent="y_RNbKNA8iqJO-V6Iays-277" vertex="1">
          <mxGeometry y="150" width="180" height="30" as="geometry" />
        </mxCell>
        <mxCell id="y_RNbKNA8iqJO-V6Iays-291" style="shape=partialRectangle;connectable=0;fillColor=none;top=0;left=0;bottom=0;right=0;editable=1;overflow=hidden;html=1;whiteSpace=wrap;labelBackgroundColor=none;strokeColor=#FFFFFF;fontColor=#FFFFFF;" parent="y_RNbKNA8iqJO-V6Iays-290" vertex="1">
          <mxGeometry width="60" height="30" as="geometry">
            <mxRectangle width="60" height="30" as="alternateBounds" />
          </mxGeometry>
        </mxCell>
        <mxCell id="y_RNbKNA8iqJO-V6Iays-292" value="location" style="shape=partialRectangle;connectable=0;fillColor=none;top=0;left=0;bottom=0;right=0;align=left;spacingLeft=6;overflow=hidden;html=1;whiteSpace=wrap;labelBackgroundColor=none;strokeColor=#FFFFFF;fontColor=#FFFFFF;" parent="y_RNbKNA8iqJO-V6Iays-290" vertex="1">
          <mxGeometry x="60" width="120" height="30" as="geometry">
            <mxRectangle width="120" height="30" as="alternateBounds" />
          </mxGeometry>
        </mxCell>
      </root>
    </mxGraphModel>
  </diagram>
</mxfile>
